<?xml version="1.0" encoding="UTF-8"?>
<svg xmlns="http://www.w3.org/2000/svg" xmlns:xlink="http://www.w3.org/1999/xlink" width="214.71pt" height="206.17pt" viewBox="0 0 214.71 206.17" version="1.1">
<defs>
<clipPath id="clip1">
  <path d="M 182 72 L 214.710938 72 L 214.710938 98 L 182 98 Z M 182 72 "/>
</clipPath>
<clipPath id="clip2">
  <path d="M 141 199 L 148 199 L 148 206.171875 L 141 206.171875 Z M 141 199 "/>
</clipPath>
</defs>
<g id="surface1">
<path style=" stroke:none;fill-rule:evenodd;fill:rgb(81.599426%,11.799622%,8.599854%);fill-opacity:1;" d="M 165.332031 85.257813 C 165.085938 79.863281 164.117188 74.773438 161.398438 70.226563 C 158.738281 65.78125 154.910156 62.566406 149.9375 60.914063 C 148.996094 60.605469 147.515625 60.402344 146.894531 60.90625 C 145.128906 62.339844 143.839844 61.03125 142.449219 60.515625 C 140.589844 59.820313 138.804688 60.054688 136.84375 60.648438 C 134.996094 61.203125 134.964844 62.695313 134.378906 63.941406 C 134.242188 64.238281 134.359375 64.648438 134.359375 65.007813 C 134.351563 67.800781 134.351563 67.800781 131.910156 69.339844 C 130.121094 70.472656 128.804688 72.648438 129.371094 73.957031 C 129.945313 75.273438 130.792969 76.484375 131.609375 77.683594 C 132.007813 78.269531 132.597656 78.714844 133.109375 79.222656 C 133.953125 80.066406 135.09375 80.78125 135.546875 81.796875 C 135.867188 82.527344 135.117188 83.664063 135.105469 84.621094 C 135.066406 87.273438 137.320313 90.03125 140.09375 90.878906 L 140.441406 90.890625 C 142.742188 92.71875 145.351563 92.445313 147.777344 91.550781 C 151.460938 90.1875 155.210938 90.074219 159.035156 90.15625 C 159.359375 90.164063 159.699219 90.046875 160.03125 89.984375 C 159.816406 89.644531 159.667969 89.210938 159.359375 88.988281 C 157.648438 87.730469 155.980469 86.398438 153.941406 85.648438 C 153.601563 85.523438 153.132813 84.921875 153.210938 84.683594 C 153.324219 84.292969 153.800781 83.804688 154.183594 83.738281 C 156.039063 83.4375 157.65625 83.855469 158.832031 85.5 C 158.996094 85.730469 159.621094 85.632813 160.023438 85.683594 C 159.894531 85.429688 159.664063 85.179688 159.65625 84.921875 C 159.59375 83.683594 159.089844 82.757813 158.164063 81.917969 C 157.90625 81.6875 158.003906 80.636719 158.308594 80.339844 C 158.605469 80.042969 159.597656 79.976563 159.894531 80.242188 C 160.816406 81.101563 161.597656 82.128906 162.351563 83.148438 C 162.878906 83.859375 163.34375 84.636719 163.71875 85.441406 C 164.203125 86.46875 164.578125 87.546875 165 88.605469 C 165.109375 87.445313 165.230469 86.289063 165.332031 85.257813 "/>
<path style=" stroke:none;fill-rule:evenodd;fill:rgb(81.599426%,11.799622%,8.599854%);fill-opacity:1;" d="M 187.242188 161.90625 C 189.914063 162.328125 192.121094 161.65625 193.867188 159.589844 C 194.113281 159.292969 194.660156 159.15625 195.078125 159.121094 C 195.914063 159.046875 196.773438 158.972656 197.585938 159.121094 C 199.613281 159.488281 200.949219 158.523438 202.117188 157.050781 C 203.648438 155.117188 203.714844 153.148438 202.1875 151.195313 C 201.753906 150.628906 201.160156 150.191406 200.6875 149.65625 C 200.21875 149.121094 200.179688 148.578125 200.984375 148.335938 C 202.316406 147.925781 202.921875 146.945313 203.441406 145.710938 C 204.394531 143.457031 204.007813 142.753906 202.191406 140.992188 C 200.703125 139.539063 198.839844 138.636719 197.164063 138.445313 C 194.949219 138.191406 194.492188 136.804688 194.035156 135.410156 C 193.691406 134.351563 193.539063 133.179688 192.625 132.566406 C 191.0625 131.519531 189.4375 130.539063 187.453125 130.359375 C 184.140625 130.0625 181.386719 131.308594 179.078125 133.46875 C 176.722656 135.667969 174.039063 137.253906 171.117188 138.496094 C 170.710938 138.671875 170.3125 138.875 169.886719 138.980469 C 169.335938 139.117188 168.765625 139.167969 168.199219 139.257813 C 168.8125 139.648438 169.410156 140.34375 170.039063 140.371094 C 172.234375 140.480469 174.289063 141.628906 176.554688 141.167969 C 176.8125 141.117188 177.308594 141.335938 177.394531 141.554688 C 177.5 141.789063 177.351563 142.253906 177.160156 142.484375 C 176.035156 143.832031 174.835938 144.804688 172.96875 143.554688 C 172.457031 143.21875 171.621094 143.347656 170.933594 143.316406 C 170.738281 143.304688 170.535156 143.492188 170.339844 143.585938 L 170.699219 144.085938 C 171.859375 145.027344 173.046875 145.933594 174.1875 146.898438 C 174.40625 147.082031 174.628906 147.683594 174.539063 147.765625 C 174.257813 148.03125 173.835938 148.28125 173.449219 148.308594 C 171.5 148.445313 170.132813 147.105469 168.589844 146.246094 C 167.988281 145.914063 167.613281 145.1875 167.03125 144.78125 C 166.464844 144.378906 166.304688 143.1875 165.328125 143.707031 C 165.199219 143.777344 165.644531 145.117188 165.964844 145.804688 C 168.238281 150.679688 171.550781 154.773438 175.585938 158.292969 C 176.257813 158.882813 177.03125 159.65625 177.820313 159.738281 C 179.144531 159.871094 180.105469 160.640625 181.246094 161.035156 C 183.183594 161.695313 185.179688 162.421875 187.242188 161.90625 "/>
<path style=" stroke:none;fill-rule:evenodd;fill:rgb(81.599426%,11.799622%,8.599854%);fill-opacity:1;" d="M 161.742188 123.828125 C 163.4375 124.324219 164.679688 123.644531 165.753906 122.347656 C 166.6875 121.222656 167.746094 120.1875 169.203125 121.746094 C 170.597656 121.070313 172.046875 120.484375 173.375 119.691406 C 174.714844 118.886719 175.246094 117.484375 175.695313 116.007813 C 176.265625 114.148438 177.082031 112.332031 176.703125 110.347656 C 176.308594 108.261719 176.164063 105.972656 175.152344 104.195313 C 173.90625 102.019531 171.886719 100.277344 170.179688 98.359375 L 169.703125 98.300781 C 169.601563 98.488281 169.554688 98.726563 169.554688 98.945313 C 169.554688 99.289063 169.496094 99.738281 169.679688 99.960938 C 171.171875 101.730469 169.636719 102.917969 168.789063 104.117188 C 168.429688 104.632813 167.261719 105.1875 166.910156 104.976563 C 166.191406 104.539063 165.664063 103.65625 165.277344 102.851563 C 165.054688 102.359375 165.277344 101.671875 165.222656 101.082031 C 165.1875 100.800781 164.96875 100.539063 164.828125 100.269531 C 164.726563 100.585938 164.644531 100.90625 164.511719 101.210938 C 164.296875 101.722656 164.074219 102.230469 163.796875 102.703125 C 163.265625 103.597656 161.570313 104.175781 160.6875 103.808594 C 159.992188 103.523438 159.652344 101.648438 160.105469 100.679688 L 160.214844 100.367188 C 160.683594 99.484375 161.160156 98.605469 161.628906 97.722656 C 160.617188 97.601563 159.609375 97.464844 158.59375 97.351563 C 158.238281 97.316406 157.796875 97.480469 157.535156 97.320313 C 156.761719 96.84375 155.703125 96.382813 155.441406 95.660156 C 155.1875 94.980469 156.449219 94.800781 156.960938 94.363281 C 158.0625 93.4375 159.214844 93.9375 160.324219 93.746094 C 160.53125 93.710938 160.710938 93.53125 160.902344 93.421875 C 160.730469 93.296875 160.585938 93.105469 160.390625 93.046875 C 155.644531 91.523438 151.242188 92.4375 147.109375 95.019531 C 144.871094 96.421875 142.886719 98.007813 142.035156 100.746094 C 141.457031 102.613281 141.6875 104.382813 142.144531 106.359375 C 142.542969 108.039063 143.886719 108.089844 144.796875 108.765625 C 146.167969 109.789063 146.195313 109.625 145.90625 111.316406 C 145.585938 113.203125 146.292969 114.890625 147.347656 116.40625 C 147.75 116.988281 148.433594 117.375 148.832031 117.953125 C 149.476563 118.898438 150.351563 118.949219 151.328125 118.898438 C 152.164063 118.855469 153.015625 118.984375 153.835938 118.863281 C 154.855469 118.71875 155.6875 119.328125 155.816406 119.980469 C 155.996094 120.941406 156.683594 121.332031 157.167969 121.949219 C 158.339844 123.414063 159.726563 124.394531 161.742188 123.828125 "/>
<path style=" stroke:none;fill-rule:evenodd;fill:rgb(81.599426%,11.799622%,8.599854%);fill-opacity:1;" d="M 129.464844 117.390625 C 127.738281 117.28125 125.800781 118.347656 124.773438 120.929688 C 124.1875 122.417969 123.40625 123.285156 121.476563 123.304688 C 119.65625 123.324219 118.527344 125.898438 119.59375 128.011719 C 120.269531 129.359375 119.601563 129.707031 118.972656 130.28125 C 118.496094 130.726563 117.679688 130.851563 117.292969 131.339844 C 115.953125 133.042969 116.089844 134.523438 117.859375 136.449219 C 118.9375 137.628906 119.960938 138.519531 118.660156 140.300781 C 118.3125 140.789063 118.914063 142.316406 119.484375 143.058594 C 120.449219 144.3125 121.566406 145.363281 123.390625 145.726563 C 125.121094 146.070313 126.71875 147.023438 128.617188 146.9375 C 129.34375 146.902344 130.160156 147.695313 130.824219 147.558594 C 134.980469 146.683594 139.324219 146.578125 143.257813 144.730469 L 143.597656 144.28125 C 143.398438 144.199219 143.1875 144.109375 142.992188 144.019531 C 142.488281 143.785156 141.984375 143.558594 141.496094 143.300781 C 140.027344 142.515625 139.957031 142.21875 141.097656 141.257813 C 141.515625 140.902344 142.070313 140.714844 142.535156 140.417969 L 142.882813 139.976563 C 142.675781 139.890625 142.453125 139.695313 142.273438 139.730469 C 141.125 139.945313 140.382813 139.058594 139.484375 138.65625 C 139.078125 138.480469 138.648438 137.667969 138.742188 137.261719 C 138.847656 136.816406 139.519531 136.203125 139.976563 136.183594 C 140.980469 136.125 142.03125 136.304688 143.019531 136.546875 C 145.183594 137.074219 147.316406 137.722656 149.484375 138.25 C 149.875 138.347656 150.351563 138.09375 150.792969 138 C 150.59375 137.746094 150.4375 137.441406 150.191406 137.25 C 147.667969 135.289063 146.363281 132.367188 144.460938 129.921875 C 142.464844 127.351563 141.027344 124.351563 138.996094 121.824219 C 136.875 119.183594 134.019531 117.488281 129.464844 117.390625 "/>
<path style=" stroke:none;fill-rule:evenodd;fill:rgb(81.599426%,11.799622%,8.599854%);fill-opacity:1;" d="M 187.476563 95.910156 C 187.121094 95.910156 186.757813 95.878906 186.402344 95.917969 C 186.082031 95.960938 185.765625 96.085938 185.4375 96.175781 C 185.628906 96.425781 185.78125 96.726563 186.015625 96.929688 C 186.96875 97.757813 187.152344 98.652344 186.285156 99.636719 C 185.175781 100.882813 185.121094 100.914063 186.238281 102.15625 C 187.007813 103.015625 187.007813 103.835938 186.296875 104.59375 C 185.984375 104.925781 185.261719 105.1875 184.867188 105.058594 C 184.144531 104.820313 183.464844 104.335938 182.875 103.832031 C 180.832031 102.089844 178.84375 100.289063 176.816406 98.53125 C 176.644531 98.386719 176.316406 98.425781 176.0625 98.367188 C 176.042969 98.601563 175.953125 98.855469 176.015625 99.0625 C 176.648438 101.078125 177.359375 103.070313 177.730469 105.164063 C 177.828125 105.710938 178.140625 106.238281 178.144531 106.777344 C 178.160156 109.078125 178.828125 111.226563 179.464844 113.410156 C 179.9375 115.035156 179.550781 116.75 180.234375 118.46875 C 181.226563 120.992188 182.410156 123.328125 184.601563 124.859375 C 185.921875 125.785156 187.632813 126.492188 189.207031 126.574219 C 190.488281 126.644531 192.121094 125.945313 193.050781 125.027344 C 194.171875 123.917969 195.292969 123.933594 196.574219 123.914063 C 199.472656 123.871094 200.316406 123.125 200.386719 120.253906 C 200.414063 119.179688 200.679688 118.839844 201.773438 118.84375 C 202.515625 118.847656 203.242188 118.382813 203.988281 118.179688 C 205.046875 117.886719 205.609375 117.21875 205.429688 116.132813 C 205.214844 114.792969 206.082031 113.285156 204.8125 112.078125 C 204.679688 111.949219 204.957031 111.210938 205.214844 110.898438 C 207.445313 108.1875 206.632813 105.261719 204.800781 103.46875 C 201.664063 100.390625 198.101563 98.089844 193.871094 96.941406 C 191.796875 96.375 189.628906 96.140625 187.507813 95.761719 L 187.476563 95.910156 "/>
<path style=" stroke:none;fill-rule:evenodd;fill:rgb(81.599426%,11.799622%,8.599854%);fill-opacity:1;" d="M 135.894531 172.652344 C 137.472656 173.324219 138.082031 171.75 139.183594 171.238281 C 142.378906 169.742188 143.785156 166.742188 144.816406 163.902344 C 146.285156 159.835938 148.199219 155.765625 148.027344 151.226563 C 148.011719 150.941406 148.394531 150.660156 148.460938 150.347656 L 148.132813 149.789063 C 147.734375 149.976563 147.371094 150.351563 146.96875 150.410156 C 146.421875 150.488281 145.628906 150.523438 145.335938 150.210938 C 145.050781 149.910156 145.210938 149.136719 145.265625 148.578125 C 145.28125 148.398438 145.675781 148.265625 145.722656 148.066406 C 145.796875 147.765625 145.839844 147.3125 145.671875 147.132813 C 145.492188 146.9375 144.996094 146.851563 144.738281 146.960938 C 144.125 147.214844 143.589844 147.644531 142.996094 147.941406 C 140.96875 148.941406 138.851563 149.472656 136.589844 149.882813 C 133.921875 150.367188 131.242188 150.140625 128.632813 150.5625 C 125.6875 151.035156 122.71875 151.539063 119.941406 152.9375 C 118.453125 153.683594 117.460938 154.722656 117.226563 156.089844 C 117.039063 157.195313 117.472656 158.621094 118.09375 159.605469 C 119.011719 161.066406 120.441406 162.449219 122.164063 162.585938 C 123.679688 162.695313 123.660156 163.289063 123.597656 164.332031 C 123.558594 165.046875 123.542969 165.769531 123.601563 166.484375 C 123.785156 168.804688 125.429688 170.417969 127.78125 170.574219 C 128.609375 170.632813 129.453125 170.609375 130.289063 170.578125 C 131.257813 170.546875 132.15625 170.53125 132.789063 171.503906 C 133.496094 172.585938 134.535156 173.078125 135.894531 172.652344 "/>
<g clip-path="url(#clip1)" clip-rule="nonzero">
<path style=" stroke:none;fill-rule:evenodd;fill:rgb(81.599426%,11.799622%,8.599854%);fill-opacity:1;" d="M 208.632813 97.34375 L 209.347656 97.34375 C 213.023438 97.34375 213.304688 97.097656 214.527344 93.671875 C 215.140625 91.953125 214.058594 90.683594 213.496094 89.300781 C 213.246094 88.6875 212.605469 88.097656 212 87.796875 C 210.796875 87.199219 210.839844 86.945313 211.542969 85.664063 C 212.429688 84.050781 213.394531 82.042969 211.949219 79.949219 C 211.160156 78.796875 209.996094 78.503906 208.925781 77.980469 C 207.484375 77.28125 205.882813 76.652344 205.660156 74.886719 C 205.367188 72.636719 203.15625 73.28125 202.097656 72.242188 C 201.988281 72.136719 201.5 72.429688 201.183594 72.527344 C 200.023438 72.902344 198.839844 73.207031 197.714844 73.667969 C 195.949219 74.386719 194.261719 75.195313 192.800781 76.546875 C 188.945313 80.113281 185.84375 84.269531 182.957031 88.613281 C 182.820313 88.820313 182.8125 89.113281 182.746094 89.363281 C 183.074219 89.335938 183.519531 89.429688 183.695313 89.253906 C 184.300781 88.632813 184.800781 88.488281 185.460938 89.183594 C 185.996094 89.753906 186.441406 90.273438 185.652344 90.917969 C 185.039063 91.421875 184.371094 91.855469 183.730469 92.320313 L 183.203125 92.699219 C 183.398438 92.808594 183.582031 92.972656 183.785156 93.027344 C 184.011719 93.082031 184.277344 92.984375 184.496094 93.046875 C 185.769531 93.410156 186.757813 91.464844 188.042969 92.542969 C 189.234375 93.546875 190.566406 92.734375 191.78125 93.046875 C 193.613281 93.515625 195.59375 93.742188 197.214844 94.609375 C 199.71875 95.941406 202.539063 96.140625 205.089844 97.246094 C 206.09375 97.679688 207.441406 97.316406 208.632813 97.316406 "/>
</g>
<path style=" stroke:none;fill-rule:evenodd;fill:rgb(81.599426%,11.799622%,8.599854%);fill-opacity:1;" d="M 167.957031 54.136719 C 167.296875 54.289063 166.507813 54.269531 166.003906 54.636719 C 164.804688 55.5 164.148438 54.808594 163.25 54.121094 C 161.144531 52.519531 158.789063 52.390625 156.941406 53.585938 C 156.121094 54.109375 155.574219 56.144531 155.683594 57.304688 C 155.980469 60.585938 157.691406 63.101563 160.03125 65.175781 C 163.984375 68.671875 165.457031 73.347656 166.699219 78.207031 C 167.074219 79.65625 167.605469 81.046875 167.390625 82.578125 C 168.617188 83.039063 167.730469 84.34375 168.367188 85.039063 C 168.703125 84.289063 169.121094 83.5625 169.363281 82.785156 C 169.730469 81.613281 170.003906 80.410156 170.253906 79.207031 C 170.574219 77.664063 170.929688 77.328125 172.148438 77.226563 C 173.550781 77.109375 172.917969 78.78125 173.855469 79.035156 C 173.660156 80.398438 174.289063 81.851563 173.359375 83.140625 C 173.183594 83.394531 173.144531 83.792969 173.15625 84.117188 C 173.164063 84.4375 173.332031 84.753906 173.429688 85.070313 L 173.929688 84.695313 C 175.714844 82.683594 177.855469 80.878906 179.125 78.585938 C 179.980469 77.039063 181.039063 75.3125 181.074219 73.296875 C 181.09375 72.199219 181.820313 71.070313 181.6875 70.019531 C 181.351563 67.222656 181.085938 64.324219 180.101563 61.726563 C 179.117188 59.132813 177.160156 56.917969 173.910156 57.191406 C 172.335938 57.320313 172.109375 55.878906 171.148438 55.328125 C 170.097656 54.722656 169.261719 54.019531 167.957031 54.136719 "/>
<path style=" stroke:none;fill-rule:evenodd;fill:rgb(81.599426%,11.799622%,8.599854%);fill-opacity:1;" d="M 155.898438 159.90625 C 155.324219 163.570313 157.605469 166.378906 158.824219 169.480469 C 159.695313 171.691406 161.578125 173.265625 163.378906 174.738281 C 164.636719 175.773438 166.722656 176.265625 167.9375 175.492188 C 169.835938 174.28125 171.5625 175.089844 172.714844 175.761719 C 174.871094 177.027344 176.433594 175.890625 177.09375 174.671875 C 178.011719 172.992188 179.113281 173.214844 180.117188 173.71875 C 181.304688 174.320313 182.152344 174.261719 183.339844 173.75 C 184.824219 173.105469 186.019531 172.085938 186.691406 170.835938 C 187.375 169.578125 186.566406 168.074219 185.679688 167.042969 C 184.410156 165.566406 183.003906 164.226563 181.132813 163.359375 C 178.511719 162.148438 175.929688 160.871094 173.472656 159.261719 C 171.535156 157.988281 169.871094 156.46875 168.609375 154.757813 C 166.898438 152.429688 164.675781 150.355469 163.796875 147.457031 C 163.738281 147.25 163.558594 147.082031 163.433594 146.898438 C 163.316406 147.085938 163.074219 147.300781 163.109375 147.460938 C 163.398438 149.039063 162.511719 150.6875 163.671875 152.273438 C 164.132813 152.898438 163.804688 154.117188 163.796875 155.066406 C 163.78125 156.03125 162.632813 156.722656 161.9375 156.109375 C 160.734375 155.050781 159.492188 153.957031 159.476563 152.113281 C 159.464844 151.566406 159.3125 150.996094 159.101563 150.484375 C 158.984375 150.207031 158.617188 150.035156 158.367188 149.816406 C 158.261719 150.011719 158.0625 150.210938 158.070313 150.40625 C 158.125 152.386719 156.019531 153.785156 156.589844 155.898438 C 155.25 157.050781 156.226563 158.59375 155.898438 159.90625 "/>
<path style=" stroke:none;fill-rule:evenodd;fill:rgb(81.599426%,11.799622%,8.599854%);fill-opacity:1;" d="M 196.097656 64.445313 C 196.003906 64.269531 195.546875 63.707031 195.445313 63.09375 C 195.371094 62.652344 196.003906 62.09375 195.917969 61.671875 C 195.785156 61.050781 195.328125 60.484375 194.949219 59.933594 C 193.824219 58.28125 193.8125 58.289063 195.453125 57.4375 C 195.949219 57.179688 196.457031 56.960938 196.929688 56.667969 C 197.78125 56.136719 198.164063 56.316406 198.285156 57.339844 C 198.453125 58.914063 199.367188 59.84375 200.960938 60 C 202.019531 60.101563 203.703125 58.996094 204.007813 58.066406 C 204.441406 56.773438 203.785156 54.816406 202.640625 53.96875 C 201.652344 53.234375 200.238281 53.28125 199.253906 54.417969 C 198.089844 55.761719 196.445313 55.773438 195.023438 56.390625 C 194.78125 56.496094 194.269531 56.347656 194.101563 56.136719 C 193.945313 55.949219 193.980469 55.453125 194.125 55.203125 C 194.84375 53.941406 195.601563 52.699219 196.398438 51.480469 C 196.808594 50.855469 197.386719 50.585938 198.210938 50.652344 C 199.824219 50.773438 200.710938 49.746094 201.578125 48.5 C 202.511719 47.171875 201.25 46.359375 201.066406 45.328125 C 200.941406 44.636719 197.917969 43.800781 197.332031 44.242188 C 196.441406 44.914063 195.289063 45.503906 195.394531 46.941406 C 195.425781 47.414063 195.347656 47.898438 195.398438 48.371094 C 195.679688 50.734375 195.695313 50.734375 194.394531 52.027344 C 193.894531 52.535156 193.382813 53.035156 192.875 53.535156 C 192.761719 52.871094 192.632813 52.203125 192.527344 51.53125 C 192.453125 51.078125 192.585938 50.46875 192.34375 50.1875 C 191.265625 48.972656 191.742188 48.027344 192.769531 47.21875 C 193.816406 46.394531 194.441406 45.253906 193.882813 44.148438 C 193.339844 43.058594 192.269531 42.171875 191.273438 41.386719 C 190.910156 41.097656 190.046875 41.164063 189.535156 41.371094 C 188.03125 41.972656 187.179688 43.4375 186.910156 44.761719 C 186.71875 45.738281 187.519531 47.128906 188.710938 47.796875 C 189.191406 48.0625 189.691406 48.445313 190.210938 48.480469 C 191.066406 48.539063 191.105469 48.988281 191.09375 49.640625 C 191.066406 51.4375 191.09375 53.230469 191.074219 55.023438 C 191.074219 55.226563 190.898438 55.425781 190.804688 55.621094 L 190.300781 55.265625 C 190.066406 55.011719 189.867188 54.726563 189.652344 54.460938 C 189.023438 53.707031 188.386719 52.957031 187.757813 52.203125 C 186.777344 53.445313 188.714844 53.816406 188.574219 54.917969 C 188.5 55.441406 189.222656 56.046875 189.503906 56.648438 C 189.773438 57.230469 189.777344 57.644531 188.921875 57.882813 C 186.570313 58.546875 185.832031 59.460938 185.34375 61.851563 C 185.273438 62.175781 185.25 62.59375 185.039063 62.792969 C 183.320313 64.457031 183.5625 66.25 184.503906 68.1875 C 184.738281 68.671875 184.699219 69.363281 184.601563 69.925781 C 184.347656 71.390625 184.886719 72.496094 186.0625 73.269531 C 186.964844 73.863281 186.34375 74.238281 186.09375 74.851563 C 184.957031 77.59375 183.125 79.882813 181.402344 82.230469 C 179.585938 84.707031 176.785156 86.054688 174.335938 87.726563 C 173.242188 88.46875 171.664063 88.703125 170.40625 89.433594 C 168.285156 90.664063 167.484375 92.09375 168.238281 93.527344 C 169.074219 95.117188 171.160156 95.71875 173.136719 94.816406 C 176.359375 93.34375 179.550781 91.785156 181.128906 88.277344 C 184.730469 84.835938 186.242188 80.148438 188.480469 75.894531 C 188.636719 75.601563 188.933594 75.289063 188.90625 75.011719 C 188.785156 73.910156 189.222656 73.636719 190.300781 73.617188 C 192.707031 73.578125 193.628906 72.871094 193.894531 70.511719 C 194.019531 69.359375 194.230469 68.414063 195.167969 67.804688 C 196.300781 67.074219 196.125 66.011719 196.097656 64.445313 "/>
<path style=" stroke:none;fill-rule:evenodd;fill:rgb(81.599426%,11.799622%,8.599854%);fill-opacity:1;" d="M 159.492188 185.667969 C 158.160156 184.445313 156.8125 183.246094 155.492188 182.015625 C 154.894531 181.453125 153.882813 181.042969 155.648438 180.402344 C 156.921875 179.941406 157.683594 178.539063 157.363281 176.878906 C 157.214844 176.070313 157.257813 175.203125 157.359375 174.378906 C 157.597656 172.464844 157.058594 170.929688 155.464844 169.773438 C 154.78125 169.277344 154.566406 168.585938 154.378906 167.707031 C 154.144531 166.644531 153.347656 165.582031 151.960938 165.578125 C 151.261719 165.574219 150.804688 165.480469 150.878906 164.644531 C 151.171875 161.148438 151.628906 157.75 152.949219 154.398438 C 154.441406 150.613281 156.496094 147.347656 159.347656 144.5 C 159.726563 144.121094 159.820313 143.425781 160.230469 143.105469 C 161.839844 141.839844 160.335938 140.828125 159.925781 139.855469 C 159.414063 138.652344 158.085938 138.828125 157.109375 139.054688 C 156.289063 139.238281 155.488281 139.84375 154.84375 140.445313 C 152.394531 142.75 150.953125 145.621094 150.144531 148.878906 C 148.894531 153.871094 148.511719 158.925781 148.730469 164.046875 C 148.769531 165.203125 148.878906 166.15625 147.339844 166.703125 C 146.105469 167.140625 145.726563 168.46875 145.785156 169.960938 C 145.84375 171.519531 146.457031 173.261719 145.148438 174.691406 L 145.144531 175.386719 C 146 176.945313 146.804688 178.542969 147.792969 180.011719 C 148.28125 180.738281 148.902344 181.425781 150.074219 181.421875 C 151.015625 181.414063 151.152344 182.0625 150.539063 182.773438 C 149.699219 183.742188 148.851563 184.703125 148.003906 185.667969 C 148.363281 185.667969 148.78125 185.789063 149.066406 185.644531 C 149.847656 185.261719 150.234375 183.710938 151.246094 184.410156 C 151.738281 184.75 151.585938 186.148438 151.578125 187.0625 C 151.558594 188.921875 151.375 190.65625 149.179688 191.457031 C 148.09375 191.851563 147.347656 195.40625 148.183594 196.148438 C 148.871094 196.753906 149.996094 196.957031 150.972656 197.117188 C 151.863281 197.269531 152.9375 197.390625 153.472656 196.328125 C 153.867188 195.550781 154.605469 194.421875 154.328125 193.949219 C 153.804688 193.0625 153.757813 191.585938 152.296875 191.414063 C 151.390625 191.304688 151.507813 190.773438 151.757813 190.179688 L 151.996094 189.921875 C 152.527344 188.746094 153.054688 187.5625 153.574219 186.386719 C 155.246094 186.742188 154.710938 188.667969 155.757813 189.464844 C 156.023438 189.660156 156.335938 189.804688 156.625 189.976563 C 156.050781 188.328125 155.554688 186.648438 154.871094 185.050781 C 154.632813 184.503906 154.144531 183.984375 154.800781 183.636719 C 155.085938 183.480469 155.769531 183.929688 156.214844 184.199219 C 157.25 184.835938 158.144531 185.746094 159.492188 185.667969 "/>
<path style=" stroke:none;fill-rule:evenodd;fill:rgb(81.599426%,11.799622%,8.599854%);fill-opacity:1;" d="M 143.59375 121.605469 C 144.414063 123.609375 144.5 125.839844 145.71875 127.871094 C 146.832031 129.734375 147.871094 131.300781 149.707031 132.691406 C 151.5625 134.09375 153.523438 135.078125 155.527344 136.082031 C 156.210938 136.421875 156.984375 136.578125 157.714844 136.820313 C 157.957031 135.683594 156.773438 135.496094 156.363281 134.792969 C 155.964844 134.121094 155.472656 133.492188 155.109375 132.800781 C 154.269531 131.183594 154.820313 129.472656 156.425781 128.980469 C 156.890625 128.839844 157.601563 129.042969 158.03125 129.332031 C 158.601563 129.714844 159.042969 130.3125 159.480469 130.867188 C 159.671875 131.113281 159.714844 131.480469 159.828125 131.789063 C 159.957031 131.503906 160.128906 131.214844 160.199219 130.910156 C 160.355469 130.253906 160.488281 129.589844 160.585938 128.917969 C 160.773438 127.554688 161.671875 127.34375 162.8125 127.503906 C 163.980469 127.667969 164.445313 128.273438 164.523438 129.65625 C 164.585938 130.816406 164.683594 131.976563 164.769531 133.140625 C 165.753906 132.703125 166.710938 132.171875 167.734375 131.871094 C 168.394531 131.679688 169.160156 131.738281 169.863281 131.832031 C 170.625 131.941406 170.871094 132.988281 170.3125 133.558594 C 169.472656 134.410156 168.609375 135.25 167.777344 136.105469 L 167.515625 136.601563 C 167.722656 136.683594 167.921875 136.796875 168.136719 136.832031 C 168.367188 136.867188 168.648438 136.914063 168.851563 136.828125 C 174.183594 134.59375 179.09375 131.988281 180.539063 125.605469 C 180.738281 124.738281 181.003906 124.355469 180.394531 123.570313 C 179.148438 121.96875 178.023438 120.25 178.144531 118.050781 C 178.152344 117.863281 177.9375 117.667969 177.824219 117.472656 L 177.320313 117.941406 C 176.71875 118.761719 176.195313 119.65625 175.53125 120.421875 C 174.046875 122.128906 172.375 123.265625 169.875 123.316406 C 168.738281 123.34375 167.320313 123.804688 166.164063 124.683594 C 165.050781 125.53125 163.628906 126.074219 162.261719 126.453125 C 161.539063 126.648438 160.589844 126.34375 159.828125 126.042969 C 157.800781 125.234375 155.328125 124.878906 154.671875 122.277344 C 154.363281 121.066406 153.71875 120.9375 152.699219 121.03125 C 150.820313 121.203125 149.121094 120.855469 147.511719 119.671875 C 146.769531 119.125 145.976563 118.9375 145.796875 117.824219 C 145.695313 117.242188 144.574219 117.304688 144.429688 117.871094 C 144.117188 119.070313 143.882813 120.289063 143.59375 121.605469 "/>
<path style=" stroke:none;fill-rule:evenodd;fill:rgb(81.599426%,11.799622%,8.599854%);fill-opacity:1;" d="M 182.882813 52.828125 C 183.941406 52.824219 186.808594 51.144531 186.515625 50.847656 C 185.453125 49.800781 186.808594 47.992188 185.109375 47.101563 C 184.375 46.71875 183.785156 46.339844 182.929688 46.347656 C 180.777344 46.367188 179.53125 47.730469 179.597656 50.105469 C 179.644531 51.714844 181 52.839844 182.882813 52.828125 "/>
<g clip-path="url(#clip2)" clip-rule="nonzero">
<path style=" stroke:none;fill-rule:evenodd;fill:rgb(81.599426%,11.799622%,8.599854%);fill-opacity:1;" d="M 141.539063 202.988281 C 141.550781 204.847656 142.742188 206.175781 144.40625 206.171875 C 146.023438 206.171875 148.117188 203.871094 147.996094 202.21875 C 147.925781 201.144531 145.789063 199.6875 144.3125 199.707031 C 142.644531 199.734375 141.527344 201.054688 141.539063 202.988281 "/>
</g>
<path style=" stroke:none;fill-rule:evenodd;fill:rgb(81.599426%,11.799622%,8.599854%);fill-opacity:1;" d="M 122.804688 5.070313 C 122.695313 5.074219 122.117188 5.277344 121.808594 5.070313 C 121.359375 4.761719 121.035156 4.199219 120.777344 3.6875 C 120.398438 2.941406 120.683594 0.871094 121.140625 0.488281 C 121.859375 -0.128906 123.441406 -0.140625 124.363281 0.339844 C 125.425781 0.894531 125.550781 1.984375 125.488281 2.832031 C 125.433594 3.558594 125.027344 4.578125 123.910156 4.730469 C 123.652344 4.765625 123.402344 4.882813 122.804688 5.070313 "/>
<path style=" stroke:none;fill-rule:evenodd;fill:rgb(81.599426%,11.799622%,8.599854%);fill-opacity:1;" d="M 150.496094 18.722656 C 152.34375 17.808594 154.101563 17.789063 155.835938 18.890625 C 156.085938 19.042969 156.507813 19.023438 156.828125 18.953125 C 157.445313 18.816406 158.082031 18.671875 158.636719 18.378906 C 160.027344 17.648438 161.21875 18.039063 162.398438 18.84375 C 163.953125 19.894531 164.453125 21.308594 163.796875 23.078125 C 163.601563 23.585938 163.273438 24.039063 163.058594 24.535156 C 162.835938 25.03125 162.9375 25.433594 163.578125 25.429688 C 164.640625 25.417969 165.296875 25.992188 165.964844 26.769531 C 167.164063 28.183594 167.042969 28.78125 166.132813 30.476563 C 165.382813 31.871094 164.230469 32.953125 163.070313 33.472656 C 161.515625 34.164063 161.503906 35.28125 161.496094 36.394531 C 161.484375 37.238281 161.644531 38.125 161.121094 38.777344 C 160.230469 39.898438 159.269531 40.980469 157.871094 41.5625 C 155.542969 42.539063 153.257813 42.265625 151.082031 41.222656 C 148.871094 40.164063 146.566406 39.632813 144.152344 39.398438 C 143.816406 39.367188 143.484375 39.304688 143.148438 39.332031 C 142.71875 39.355469 142.296875 39.449219 141.867188 39.511719 C 142.222656 39.089844 142.492188 38.453125 142.945313 38.285156 C 144.515625 37.707031 145.746094 36.398438 147.484375 36.214844 C 147.6875 36.191406 147.996094 35.921875 148.019531 35.742188 C 148.03125 35.546875 147.820313 35.25 147.628906 35.125 C 146.503906 34.402344 145.414063 33.972656 144.34375 35.304688 C 144.046875 35.664063 143.414063 35.765625 142.917969 35.949219 L 142.425781 35.882813 L 142.578125 35.4375 C 143.207031 34.492188 143.859375 33.5625 144.464844 32.605469 C 144.578125 32.414063 144.597656 31.929688 144.519531 31.890625 C 144.253906 31.761719 143.894531 31.679688 143.609375 31.746094 C 142.164063 32.097656 141.476563 33.378906 140.550781 34.355469 C 140.191406 34.734375 140.085938 35.347656 139.761719 35.773438 C 139.4375 36.195313 139.59375 37.097656 138.765625 36.941406 C 138.65625 36.921875 138.671875 35.847656 138.75 35.273438 C 139.28125 31.21875 140.746094 27.488281 142.863281 24.015625 C 143.21875 23.433594 143.609375 22.691406 144.160156 22.453125 C 145.09375 22.054688 145.609375 21.273438 146.351563 20.730469 C 147.601563 19.804688 148.882813 18.824219 150.496094 18.722656 "/>
<path style=" stroke:none;fill-rule:evenodd;fill:rgb(81.599426%,11.799622%,8.599854%);fill-opacity:1;" d="M 118.773438 64.242188 C 117.542969 64.71875 115.886719 64.386719 114.554688 62.746094 C 113.789063 61.804688 113.023438 61.355469 111.625 61.78125 C 110.292969 62.179688 108.886719 60.570313 109.175781 58.796875 C 109.359375 57.664063 108.800781 57.5625 108.207031 57.289063 C 107.761719 57.078125 107.136719 57.175781 106.75 56.90625 C 105.390625 55.980469 105.148438 54.875 105.988281 53.070313 C 106.503906 51.96875 107.035156 51.089844 105.6875 50.09375 C 105.320313 49.816406 105.414063 48.574219 105.65625 47.90625 C 106.074219 46.777344 106.636719 45.753906 107.878906 45.074219 C 109.054688 44.429688 110 43.371094 111.394531 43 C 111.933594 42.855469 112.339844 42.097656 112.847656 42.042969 C 116.070313 41.730469 119.242188 40.8125 122.523438 41.253906 L 122.871094 41.5 L 122.488281 41.828125 C 122.183594 42.113281 121.863281 42.394531 121.570313 42.691406 C 120.683594 43.59375 120.703125 43.824219 121.75 44.265625 C 122.132813 44.425781 122.582031 44.433594 122.984375 44.539063 L 123.335938 44.785156 L 122.953125 45.105469 C 122.0625 45.210938 121.734375 46.023438 121.175781 46.519531 C 120.921875 46.742188 120.796875 47.425781 120.953125 47.699219 C 121.132813 48.003906 121.757813 48.289063 122.09375 48.203125 C 122.835938 48.015625 123.558594 47.644531 124.222656 47.242188 C 125.671875 46.363281 127.070313 45.40625 128.515625 44.527344 C 128.78125 44.371094 129.1875 44.445313 129.53125 44.410156 C 129.441406 44.640625 129.398438 44.898438 129.265625 45.09375 C 127.882813 47.089844 127.601563 49.511719 126.78125 51.722656 C 125.917969 54.039063 125.5625 56.546875 124.671875 58.847656 C 123.730469 61.246094 122.054688 63.128906 118.773438 64.242188 "/>
<path style=" stroke:none;fill-rule:evenodd;fill:rgb(81.599426%,11.799622%,8.599854%);fill-opacity:1;" d="M 110.785156 22.675781 C 111.785156 21.828125 112.578125 22.828125 113.496094 22.953125 C 116.160156 23.304688 117.867188 25.160156 119.265625 26.980469 C 121.261719 29.601563 123.578125 32.113281 124.488281 35.449219 C 124.550781 35.652344 124.894531 35.773438 125.011719 35.984375 L 124.898438 36.464844 C 124.566406 36.421875 124.222656 36.230469 123.910156 36.28125 C 123.496094 36.351563 122.917969 36.503906 122.773438 36.796875 C 122.640625 37.082031 122.929688 37.605469 123.09375 37.996094 L 123.546875 38.265625 C 123.667969 38.46875 123.796875 38.785156 123.71875 38.953125 C 123.632813 39.136719 123.296875 39.3125 123.085938 39.292969 C 122.582031 39.25 122.09375 39.0625 121.59375 38.980469 C 119.894531 38.71875 118.238281 38.816406 116.511719 39.035156 C 114.453125 39.296875 112.5625 40.074219 110.570313 40.367188 C 108.332031 40.695313 106.058594 41.007813 103.726563 40.632813 C 102.476563 40.429688 101.519531 39.90625 101.039063 38.964844 C 100.640625 38.203125 100.636719 37.074219 100.863281 36.21875 C 101.195313 34.945313 101.914063 33.613281 103.128906 33.128906 C 104.203125 32.695313 104.058594 32.273438 103.769531 31.527344 C 103.578125 31.015625 103.398438 30.496094 103.28125 29.964844 C 102.882813 28.242188 103.710938 26.691406 105.375 26.039063 C 105.96875 25.808594 106.585938 25.632813 107.195313 25.464844 C 107.910156 25.265625 108.558594 25.070313 108.800781 24.222656 C 109.0625 23.273438 109.703125 22.679688 110.785156 22.675781 "/>
<path style=" stroke:none;fill-rule:evenodd;fill:rgb(81.599426%,11.799622%,8.599854%);fill-opacity:1;" d="M 128.21875 27.347656 C 126.960938 24.820313 127.972656 22.261719 128.144531 19.734375 C 128.273438 17.933594 129.28125 16.355469 130.246094 14.878906 C 130.933594 13.839844 132.328125 13.003906 133.386719 13.289063 C 135.039063 13.738281 136.109375 12.75 136.789063 11.996094 C 138.066406 10.589844 139.453125 11.054688 140.21875 11.789063 C 141.261719 12.792969 142.015625 12.382813 142.621094 11.789063 C 143.351563 11.078125 143.972656 10.925781 144.960938 11.027344 C 146.183594 11.15625 147.28125 11.621094 148.058594 12.375 C 148.835938 13.132813 148.597656 14.40625 148.1875 15.355469 C 147.609375 16.722656 146.894531 18.011719 145.734375 19.066406 C 144.113281 20.550781 142.527344 22.066406 141.117188 23.800781 C 139.996094 25.160156 139.136719 26.648438 138.613281 28.175781 C 137.902344 30.257813 136.769531 32.269531 136.789063 34.578125 L 136.664063 35.066406 L 136.289063 34.730469 C 136.144531 33.519531 135.121094 32.523438 135.605469 31.105469 C 135.796875 30.550781 135.277344 29.738281 135.054688 29.054688 C 134.824219 28.355469 133.832031 28.117188 133.46875 28.722656 C 132.835938 29.765625 132.191406 30.84375 132.59375 32.183594 C 132.714844 32.582031 132.730469 33.035156 132.695313 33.453125 C 132.679688 33.679688 132.449219 33.890625 132.3125 34.105469 L 131.96875 33.742188 C 131.550781 32.296875 129.703125 31.765625 129.632813 30.101563 C 128.402344 29.570313 128.757813 28.222656 128.21875 27.347656 "/>
<path style=" stroke:none;fill-rule:evenodd;fill:rgb(81.599426%,11.799622%,8.599854%);fill-opacity:1;" d="M 124.929688 7.839844 C 124.242188 9.027344 123.539063 10.210938 122.867188 11.402344 C 122.554688 11.945313 121.921875 12.472656 123.347656 12.535156 C 124.382813 12.582031 125.25 13.425781 125.398438 14.699219 C 125.472656 15.320313 125.699219 15.941406 125.964844 16.515625 C 126.578125 17.847656 126.535156 19.085938 125.648438 20.285156 C 125.261719 20.808594 125.265625 21.359375 125.328125 22.039063 C 125.410156 22.867188 125.070313 23.816406 124.058594 24.136719 C 123.5625 24.300781 123.242188 24.46875 123.488281 25.0625 C 124.503906 27.527344 125.617188 29.890625 127.339844 32.019531 C 129.285156 34.425781 131.527344 36.320313 134.242188 37.734375 C 134.605469 37.925781 134.835938 38.410156 135.207031 38.546875 C 136.660156 39.101563 135.800781 40.175781 135.722656 40.980469 C 135.632813 41.960938 134.625 42.140625 133.867188 42.199219 C 133.226563 42.253906 132.511719 41.996094 131.90625 41.707031 C 129.601563 40.597656 127.898438 38.84375 126.566406 36.664063 C 124.515625 33.332031 123.078125 29.75 122.066406 25.984375 C 121.839844 25.136719 121.695313 24.421875 120.445313 24.375 C 119.457031 24.339844 118.882813 23.464844 118.578125 22.367188 C 118.261719 21.222656 118.316406 19.816406 117.035156 19.085938 L 116.875 18.582031 C 117.132813 17.253906 117.355469 15.910156 117.742188 14.617188 C 117.925781 13.984375 118.21875 13.335938 119.066406 13.074219 C 119.753906 12.863281 119.707031 12.363281 119.097656 11.988281 C 118.265625 11.476563 117.433594 10.976563 116.597656 10.46875 C 116.855469 10.386719 117.132813 10.207031 117.375 10.238281 C 118.027344 10.339844 118.660156 11.375 119.242188 10.636719 C 119.511719 10.277344 119.085938 9.296875 118.867188 8.636719 C 118.429688 7.289063 117.898438 6.074219 116.121094 5.992188 C 115.25 5.953125 113.886719 3.550781 114.328125 2.816406 C 114.691406 2.222656 115.457031 1.816406 116.128906 1.480469 C 116.746094 1.164063 117.488281 0.832031 118.125 1.480469 C 118.585938 1.949219 119.378906 2.605469 119.289063 3.011719 C 119.113281 3.777344 119.417969 4.855469 118.398438 5.316406 C 117.765625 5.597656 117.964844 5.960938 118.289063 6.335938 L 118.519531 6.464844 C 119.175781 7.195313 119.824219 7.9375 120.472656 8.671875 C 121.605469 8.027344 120.777344 6.75 121.351563 5.9375 C 121.496094 5.734375 121.691406 5.558594 121.859375 5.367188 C 121.824219 6.695313 121.847656 8.027344 121.722656 9.339844 C 121.671875 9.796875 121.4375 10.277344 121.992188 10.386719 C 122.234375 10.433594 122.628906 9.949219 122.890625 9.652344 C 123.492188 8.953125 123.9375 8.09375 124.929688 7.839844 "/>
<path style=" stroke:none;fill-rule:evenodd;fill:rgb(81.599426%,11.799622%,8.599854%);fill-opacity:1;" d="M 128.050781 57.949219 C 128.195313 56.304688 127.742188 54.671875 128.167969 52.921875 C 128.546875 51.3125 128.9375 49.933594 129.953125 48.511719 C 130.980469 47.070313 132.175781 45.90625 133.402344 44.71875 C 133.820313 44.316406 134.34375 44.023438 134.816406 43.679688 C 135.253906 44.449219 134.441406 44.855469 134.300781 45.460938 C 134.164063 46.039063 133.953125 46.609375 133.851563 47.191406 C 133.605469 48.558594 134.402344 49.671875 135.675781 49.664063 C 136.046875 49.660156 136.511719 49.347656 136.761719 49.039063 C 137.089844 48.632813 137.273438 48.101563 137.464844 47.597656 C 137.539063 47.371094 137.492188 47.097656 137.507813 46.847656 C 137.664063 47.027344 137.855469 47.195313 137.972656 47.398438 C 138.234375 47.839844 138.488281 48.292969 138.703125 48.753906 C 139.15625 49.699219 139.851563 49.648438 140.648438 49.273438 C 141.457031 48.886719 141.65625 48.34375 141.398438 47.320313 C 141.175781 46.460938 140.984375 45.597656 140.777344 44.738281 C 141.59375 44.828125 142.40625 44.992188 143.214844 44.980469 C 143.742188 44.96875 144.289063 44.75 144.769531 44.515625 C 145.300781 44.265625 145.238281 43.453125 144.703125 43.164063 C 143.902344 42.734375 143.085938 42.328125 142.28125 41.898438 L 141.980469 41.59375 L 142.382813 41.289063 L 142.894531 41.128906 C 147.277344 41.523438 151.433594 42.292969 153.945313 46.59375 C 154.285156 47.179688 154.570313 47.394531 154.300781 48.105469 C 153.765625 49.550781 153.347656 51.054688 153.9375 52.625 L 153.835938 53.117188 L 153.363281 52.890625 C 152.738281 52.433594 152.152344 51.90625 151.496094 51.503906 C 150.027344 50.601563 148.554688 50.160156 146.734375 50.691406 C 145.898438 50.9375 144.765625 50.925781 143.730469 50.550781 C 142.730469 50.195313 141.566406 50.128906 140.492188 50.160156 C 139.921875 50.183594 139.304688 50.625 138.820313 51.015625 C 137.527344 52.066406 135.816406 52.890625 135.941406 54.929688 C 135.988281 55.882813 135.554688 56.117188 134.796875 56.28125 C 133.386719 56.589844 132.230469 57.230469 131.339844 58.457031 C 130.933594 59.023438 130.394531 59.339844 130.519531 60.1875 C 130.578125 60.632813 129.753906 60.851563 129.511719 60.46875 C 129.015625 59.671875 128.570313 58.839844 128.050781 57.949219 "/>
<path style=" stroke:none;fill-rule:evenodd;fill:rgb(81.599426%,11.799622%,8.599854%);fill-opacity:1;" d="M 129.148438 8.917969 C 128.21875 9.140625 127.398438 9.410156 126.769531 8.332031 C 126.578125 7.992188 126.09375 7.777344 125.703125 7.613281 C 125.457031 7.507813 125.136719 7.582031 124.851563 7.578125 C 125.050781 7.417969 125.3125 7.304688 125.421875 7.097656 C 125.648438 6.652344 125.890625 6.183594 125.953125 5.699219 C 126.09375 4.761719 126.628906 4.371094 127.496094 4.144531 C 128.792969 3.808594 129.054688 3.949219 130.167969 5.089844 C 131.066406 6.007813 130.679688 7.054688 130.632813 8.019531 C 130.621094 8.335938 129.667969 8.617188 129.148438 8.917969 "/>
<path style=" stroke:none;fill-rule:evenodd;fill:rgb(81.599426%,11.799622%,8.599854%);fill-opacity:1;" d="M 111.648438 11.132813 C 111.234375 9.78125 111.792969 8.546875 113.003906 8.164063 C 114.175781 7.796875 116.21875 8.980469 116.511719 10.210938 C 116.703125 11.003906 115.484375 12.550781 114.414063 12.871094 C 113.199219 13.234375 112.082031 12.535156 111.648438 11.132813 "/>
<path style=" stroke:none;fill-rule:evenodd;fill:rgb(81.599426%,11.799622%,8.599854%);fill-opacity:1;" d="M 71.289063 119.144531 C 69.699219 111.082031 69.289063 103.210938 71.671875 95.503906 C 73.992188 87.976563 78.496094 81.832031 85.253906 77.601563 C 86.539063 76.796875 88.652344 75.964844 89.746094 76.488281 C 92.878906 77.96875 94.308594 75.5625 96.179688 74.296875 C 98.667969 72.605469 101.394531 72.304688 104.519531 72.472656 C 107.445313 72.628906 108.027344 74.816406 109.34375 76.457031 C 109.648438 76.835938 109.628906 77.488281 109.761719 78.019531 C 110.777344 82.148438 110.777344 82.148438 114.949219 83.546875 C 118 84.566406 120.734375 87.308594 120.367188 89.453125 C 119.992188 91.609375 119.179688 93.703125 118.410156 95.769531 C 118.035156 96.777344 117.3125 97.644531 116.746094 98.582031 C 115.800781 100.136719 114.375 101.601563 114.074219 103.273438 C 113.863281 104.472656 115.371094 105.875 115.738281 107.289063 C 116.757813 111.199219 114.417969 116.085938 110.628906 118.34375 L 110.121094 118.488281 C 107.378906 122.023438 103.421875 122.5625 99.507813 122.109375 C 93.574219 121.421875 87.980469 122.617188 82.371094 124.117188 C 81.878906 124.25 81.339844 124.195313 80.824219 124.226563 C 81.03125 123.644531 81.082031 122.945313 81.453125 122.503906 C 83.535156 120.027344 85.523438 117.457031 88.265625 115.613281 C 88.722656 115.308594 89.195313 114.238281 89.003906 113.917969 C 88.6875 113.386719 87.808594 112.832031 87.210938 112.878906 C 84.363281 113.105469 82.113281 114.300781 80.972656 117.160156 C 80.8125 117.558594 79.859375 117.636719 79.28125 117.859375 C 79.378906 117.441406 79.636719 116.988281 79.558594 116.597656 C 79.195313 114.753906 79.609375 113.195313 80.679688 111.621094 C 80.96875 111.183594 80.449219 109.664063 79.894531 109.332031 C 79.339844 109.015625 77.84375 109.273438 77.511719 109.773438 C 76.449219 111.367188 75.671875 113.167969 74.921875 114.949219 C 74.402344 116.191406 74 117.515625 73.726563 118.835938 C 73.382813 120.53125 73.21875 122.261719 72.976563 123.980469 C 72.398438 122.304688 71.804688 120.636719 71.289063 119.144531 "/>
<path style=" stroke:none;fill-rule:evenodd;fill:rgb(81.599426%,11.799622%,8.599854%);fill-opacity:1;" d="M 90.53125 174.882813 C 88.191406 176.21875 86.109375 175.664063 84.054688 174.136719 C 82.265625 172.8125 80.324219 171.664063 78.734375 174.488281 C 76.433594 173.992188 74.082031 173.652344 71.839844 172.960938 C 69.558594 172.253906 68.269531 170.375 67.066406 168.359375 C 65.558594 165.8125 63.691406 163.421875 63.53125 160.347656 C 63.359375 157.125 62.746094 153.683594 63.605469 150.699219 C 64.65625 147.023438 67.019531 143.71875 68.851563 140.269531 L 69.527344 140.003906 L 69.984375 140.910156 C 70.101563 141.417969 70.359375 142.058594 70.164063 142.449219 C 68.605469 145.617188 71.300781 146.808594 72.984375 148.285156 C 73.703125 148.910156 75.636719 149.3125 76.074219 148.875 C 76.980469 147.96875 77.441406 146.464844 77.71875 145.136719 C 77.882813 144.332031 77.292969 143.394531 77.164063 142.496094 C 77.109375 142.070313 77.339844 141.605469 77.449219 141.15625 C 77.71875 141.582031 77.957031 142.039063 78.257813 142.4375 C 78.761719 143.109375 79.269531 143.792969 79.859375 144.386719 C 80.964844 145.515625 83.679688 145.753906 84.855469 144.894531 C 85.777344 144.21875 85.609375 141.332031 84.582031 140.054688 L 84.3125 139.636719 C 83.296875 138.5 82.28125 137.375 81.265625 136.242188 C 82.710938 135.695313 84.15625 135.117188 85.613281 134.597656 C 86.125 134.410156 86.84375 134.5 87.167969 134.167969 C 88.136719 133.183594 89.542969 132.105469 89.667969 130.957031 C 89.796875 129.847656 87.871094 130.042969 86.949219 129.589844 C 84.984375 128.617188 83.460938 129.773438 81.753906 129.882813 L 80.78125 129.617188 L 81.402344 128.878906 C 87.875 124.914063 94.710938 124.667969 101.75 127 C 105.570313 128.261719 109.070313 129.890625 111.320313 133.625 C 112.859375 136.1875 113.148438 138.886719 113.179688 141.96875 C 113.207031 144.597656 111.238281 145.152344 110.140625 146.488281 C 108.484375 148.496094 108.378906 148.265625 109.414063 150.65625 C 110.570313 153.332031 110.140625 156.078125 109.121094 158.703125 C 108.738281 159.707031 107.863281 160.527344 107.488281 161.527344 C 106.886719 163.164063 105.605469 163.542969 104.136719 163.828125 C 102.886719 164.0625 101.675781 164.558594 100.417969 164.679688 C 98.863281 164.835938 97.84375 166.035156 97.894531 167.046875 C 97.972656 168.535156 97.105469 169.363281 96.605469 170.445313 C 95.410156 173.039063 93.710938 174.984375 90.53125 174.882813 "/>
<path style=" stroke:none;fill-rule:evenodd;fill:rgb(81.599426%,11.799622%,8.599854%);fill-opacity:1;" d="M 42.382813 142.898438 C 42.914063 142.773438 43.441406 142.585938 43.972656 142.527344 C 44.472656 142.46875 44.988281 142.539063 45.496094 142.554688 C 45.308594 142.992188 45.1875 143.484375 44.917969 143.875 C 43.808594 145.449219 43.863281 146.835938 45.5 147.96875 C 47.582031 149.414063 47.691406 149.441406 46.476563 151.683594 C 45.644531 153.234375 45.945313 154.445313 47.269531 155.308594 C 47.851563 155.683594 49.015625 155.820313 49.550781 155.480469 C 50.535156 154.867188 51.359375 153.90625 52.054688 152.945313 C 54.441406 149.636719 56.734375 146.25 59.101563 142.921875 C 59.300781 142.644531 59.796875 142.574219 60.15625 142.410156 L 60.46875 143.417969 C 60.261719 146.628906 59.929688 149.828125 60.140625 153.0625 C 60.1875 153.902344 59.929688 154.796875 60.117188 155.59375 C 60.921875 159.003906 60.707031 162.421875 60.554688 165.871094 C 60.433594 168.449219 61.636719 170.847656 61.253906 173.632813 C 60.6875 177.71875 59.789063 181.605469 57.101563 184.664063 C 55.488281 186.5 53.210938 188.167969 50.90625 188.863281 C 49.039063 189.421875 46.367188 188.980469 44.667969 187.953125 C 42.613281 186.730469 40.953125 187.152344 39.046875 187.589844 C 34.75 188.574219 33.238281 187.773438 32.085938 183.554688 C 31.664063 181.976563 31.148438 181.566406 29.527344 181.96875 C 28.4375 182.242188 27.191406 181.824219 26.011719 181.78125 C 24.347656 181.730469 23.273438 180.949219 23.144531 179.28125 C 22.984375 177.21875 21.15625 175.308594 22.601563 173.046875 C 22.746094 172.824219 22.078125 171.832031 21.582031 171.460938 C 17.300781 168.261719 17.449219 163.636719 19.503906 160.332031 C 23.027344 154.648438 27.46875 149.949219 33.308594 146.726563 C 36.167969 145.148438 39.289063 144.019531 42.289063 142.6875 L 42.382813 142.898438 "/>
<path style=" stroke:none;fill-rule:evenodd;fill:rgb(81.599426%,11.799622%,8.599854%);fill-opacity:1;" d="M 11.625 152.660156 L 10.570313 152.917969 C 5.136719 154.246094 4.621094 153.984375 1.589844 149.359375 C 0.0703125 147.039063 1.195313 144.769531 1.527344 142.523438 C 1.679688 141.527344 2.410156 140.425781 3.195313 139.757813 C 4.765625 138.445313 4.605469 138.074219 3.105469 136.4375 C 1.207031 134.375 -0.933594 131.765625 0.433594 128.144531 C 1.1875 126.144531 2.800781 125.292969 4.195313 124.144531 C 6.085938 122.582031 8.214844 121.074219 7.914063 118.378906 C 7.523438 114.949219 11.027344 115.105469 12.21875 113.183594 C 12.335938 112.988281 13.175781 113.242188 13.675781 113.28125 C 15.527344 113.414063 17.390625 113.4375 19.21875 113.707031 C 22.089844 114.132813 24.875 114.714844 27.523438 116.1875 C 34.515625 120.074219 40.601563 125.09375 46.429688 130.476563 L 47.019531 131.515625 C 46.527344 131.589844 45.898438 131.886719 45.566406 131.691406 C 44.453125 130.992188 43.664063 130.957031 42.941406 132.222656 C 42.347656 133.253906 41.890625 134.183594 43.28125 134.855469 C 44.371094 135.378906 45.519531 135.777344 46.636719 136.234375 L 47.542969 136.605469 L 46.804688 137.296875 L 45.757813 137.585938 C 44.011719 138.582031 41.84375 136.058594 40.335938 138.125 C 38.9375 140.039063 36.671875 139.3125 34.980469 140.214844 C 32.445313 141.570313 29.605469 142.625 27.511719 144.488281 C 24.296875 147.367188 20.203125 148.675781 16.824219 151.238281 C 15.503906 152.246094 13.378906 152.191406 11.617188 152.621094 L 11.625 152.660156 "/>
<path style=" stroke:none;fill-rule:evenodd;fill:rgb(81.599426%,11.799622%,8.599854%);fill-opacity:1;" d="M 56.15625 74.078125 C 57.191406 74.070313 58.347656 73.757813 59.234375 74.113281 C 61.308594 74.953125 62.027344 73.695313 63.109375 72.355469 C 65.648438 69.226563 69.09375 68.1875 72.25 69.285156 C 73.644531 69.769531 75.1875 72.585938 75.453125 74.328125 C 76.195313 79.296875 74.570313 83.628906 71.859375 87.539063 C 67.273438 94.132813 66.796875 101.585938 66.703125 109.21875 C 66.683594 111.496094 66.402344 113.746094 67.269531 115.925781 C 65.621094 117.054688 67.402344 118.660156 66.714844 119.921875 C 65.941406 118.933594 65.066406 118.011719 64.425781 116.949219 C 63.464844 115.34375 62.621094 113.664063 61.820313 111.976563 C 60.792969 109.8125 60.148438 109.441406 58.300781 109.730469 C 56.191406 110.0625 57.722656 112.3125 56.433594 113.023438 C 57.210938 114.972656 56.808594 117.34375 58.640625 118.914063 C 58.996094 119.226563 59.207031 119.800781 59.304688 120.289063 C 59.402344 120.769531 59.273438 121.292969 59.246094 121.796875 L 58.363281 121.417969 C 55.003906 119.097656 51.183594 117.191406 48.46875 114.261719 C 46.644531 112.289063 44.457031 110.121094 43.6875 107.152344 C 43.265625 105.53125 41.777344 104.121094 41.585938 102.519531 C 41.078125 98.269531 40.429688 93.886719 40.949219 89.691406 C 41.460938 85.5 43.558594 81.515625 48.460938 80.746094 C 50.832031 80.371094 50.640625 78.160156 51.871094 76.992188 C 53.210938 75.71875 54.191406 74.378906 56.15625 74.078125 "/>
<path style=" stroke:none;fill-rule:evenodd;fill:rgb(81.599426%,11.799622%,8.599854%);fill-opacity:1;" d="M 18.285156 99.492188 C 18.359375 99.199219 18.820313 98.203125 18.753906 97.25 C 18.703125 96.582031 17.5625 95.984375 17.542969 95.320313 C 17.515625 94.359375 17.988281 93.359375 18.34375 92.40625 C 19.414063 89.554688 19.433594 89.5625 16.695313 88.898438 C 15.878906 88.695313 15.039063 88.554688 14.242188 88.296875 C 12.792969 87.808594 12.277344 88.214844 12.484375 89.773438 C 12.800781 92.160156 11.785156 93.863281 9.488281 94.671875 C 7.953125 95.207031 5.070313 94.183594 4.269531 92.914063 C 3.171875 91.160156 3.429688 88.039063 4.824219 86.367188 C 6.019531 84.921875 8.121094 84.472656 9.992188 85.808594 C 12.183594 87.371094 14.636719 86.796875 16.953125 87.195313 C 17.351563 87.265625 18.050781 86.855469 18.230469 86.484375 L 17.855469 85.113281 C 16.335938 83.507813 14.769531 81.941406 13.144531 80.433594 C 12.320313 79.65625 11.363281 79.46875 10.167969 79.855469 C 7.824219 80.621094 6.148438 79.429688 4.410156 77.894531 C 2.554688 76.265625 4.117188 74.609375 4.027344 73.019531 C 3.96875 71.949219 8.125 69.625 9.15625 70.070313 C 10.710938 70.734375 12.621094 71.195313 13.003906 73.351563 C 13.121094 74.066406 13.414063 74.761719 13.5 75.472656 C 13.9375 79.070313 13.921875 79.070313 16.304688 80.523438 C 17.238281 81.082031 18.171875 81.640625 19.105469 82.203125 C 19.035156 81.171875 18.980469 80.140625 18.894531 79.109375 C 18.832031 78.410156 18.414063 77.558594 18.679688 77.054688 C 19.832031 74.867188 18.789063 73.644531 16.972656 72.816406 C 15.128906 71.980469 13.792969 70.515625 14.21875 68.683594 C 14.636719 66.871094 15.894531 65.179688 17.078125 63.652344 C 17.515625 63.09375 18.8125 62.886719 19.648438 63.003906 C 22.078125 63.347656 23.878906 65.203125 24.75 67.070313 C 25.390625 68.449219 24.710938 70.789063 23.1875 72.207031 C 22.570313 72.777344 21.964844 73.523438 21.21875 73.761719 C 19.972656 74.160156 20.078125 74.835938 20.328125 75.796875 C 21.011719 78.441406 21.625 81.097656 22.300781 83.746094 L 22.914063 84.535156 L 23.53125 83.820313 C 23.789063 83.367188 23.976563 82.871094 24.207031 82.402344 C 24.863281 81.054688 25.523438 79.71875 26.183594 78.382813 C 28.078125 79.855469 25.359375 81.109375 25.964844 82.6875 C 26.253906 83.4375 25.40625 84.585938 25.210938 85.578125 C 25.023438 86.539063 25.164063 87.152344 26.515625 87.199219 C 30.226563 87.328125 31.65625 88.40625 33.246094 91.769531 C 33.464844 92.226563 33.652344 92.832031 34.035156 93.054688 C 37.175781 94.894531 37.460938 97.628906 36.777344 100.835938 C 36.601563 101.640625 36.902344 102.648438 37.25 103.441406 C 38.164063 105.519531 37.761719 107.339844 36.300781 108.914063 C 35.179688 110.109375 36.230469 110.453125 36.828125 111.269531 C 39.503906 114.910156 43.042969 117.625 46.433594 120.476563 C 50.015625 123.484375 54.632813 124.46875 58.867188 126.050781 C 60.742188 126.753906 63.164063 126.53125 65.296875 127.160156 C 68.871094 128.207031 70.5625 130.042969 69.972656 132.425781 C 69.3125 135.078125 66.433594 136.722656 63.203125 136.101563 C 57.898438 135.082031 52.621094 133.9375 49.027344 129.320313 C 42.449219 125.527344 38.519531 119.148438 33.671875 113.667969 C 33.339844 113.289063 32.78125 112.9375 32.730469 112.515625 C 32.5 110.84375 31.765625 110.59375 30.164063 110.957031 C 26.59375 111.773438 24.972656 111.050781 23.730469 107.664063 C 23.117188 106 22.46875 104.683594 20.863281 104.121094 C 18.929688 103.449219 18.804688 101.8125 18.285156 99.492188 "/>
<path style=" stroke:none;fill-rule:evenodd;fill:rgb(81.599426%,11.799622%,8.599854%);fill-opacity:1;" d="M 33.617188 77.539063 C 32.050781 77.914063 27.199219 76.46875 27.53125 75.925781 C 28.71875 74.003906 26.070313 71.8125 28.253906 69.878906 C 29.203125 69.046875 29.9375 68.277344 31.207031 67.980469 C 34.398438 67.230469 36.726563 68.789063 37.492188 72.324219 C 38.003906 74.722656 36.414063 76.867188 33.617188 77.539063 "/>
</g>
</svg>
